<svg width="468" height="468" viewBox="0 0 468 468" fill="none" xmlns="http://www.w3.org/2000/svg">
<g filter="url(#filter0_i)">
<circle cx="234" cy="234" r="234" fill="white"/>
</g>
<circle cx="234" cy="234" r="216.5" stroke="url(#paint0_linear)" stroke-width="35"/>
<g filter="url(#filter1_df)">
<g filter="url(#filter2_di)">
<path d="M234.08 303.83C216.75 321.53 192.84 332.76 166.31 333.56C165.9 333.58 165.5 333.59 165.09 333.6C164.47 333.61 163.84 333.62 163.21 333.62C162.58 333.62 161.95 333.61 161.33 333.6C160.92 333.59 160.51 333.58 160.11 333.56C134.56 332.46 112.51 317.82 100.95 296.64C95.4598 286.57 92.3398 275.03 92.3398 262.75C92.3398 235.89 107.28 212.52 129.31 200.5C139.06 195.18 150.2 192.08 162.05 191.89C139.49 192.5 121.31 210.68 120.7 233.24C120.7 233.63 120.69 234.01 120.69 234.4C120.69 234.79 120.7 235.17 120.7 235.56C121.16 264.12 138.52 288.58 163.21 299.37C171.89 303.17 181.48 305.27 191.56 305.27C203.85 305.27 215.4 302.14 225.47 296.64C225.98 296.36 226.49 296.08 226.99 295.78C229.2 298.59 231.57 301.28 234.08 303.83Z" fill="url(#paint1_linear)"/>
</g>
<g filter="url(#filter3_di)">
<path d="M404.14 236.28C403.14 290.21 359.11 333.62 304.94 333.62C277.18 333.62 252.08 322.21 234.08 303.83C231.57 301.28 229.2 298.59 226.99 295.78C226.77 295.51 226.56 295.24 226.36 294.96C213.77 278.67 206.16 258.36 205.75 236.28C205.74 235.66 205.73 235.03 205.73 234.4C205.73 234.01 205.72 233.63 205.72 233.24C205.53 221.39 202.43 210.25 197.11 200.5C189.6 186.74 177.66 175.75 163.21 169.44C154.53 165.64 144.94 163.54 134.86 163.54C96.36 163.54 65.02 194.25 64.02 232.52C65.02 178.6 109.05 135.19 163.21 135.19C190.97 135.19 216.07 146.6 234.08 164.98C236.58 167.53 238.95 170.22 241.16 173.03C241.38 173.3 241.59 173.58 241.8 173.86C254.37 190.14 261.99 210.45 262.4 232.52C262.41 233.14 262.42 233.77 262.42 234.4C262.42 234.79 262.43 235.17 262.43 235.56C262.62 247.41 265.72 258.55 271.04 268.3C278.55 282.06 290.49 293.06 304.94 299.37C313.62 303.17 323.21 305.27 333.29 305.27C371.8 305.27 403.14 274.55 404.14 236.28Z" fill="url(#paint2_linear)"/>
</g>
<g filter="url(#filter4_di)">
<path d="M205.72 233.24C205.11 210.68 186.93 192.5 164.37 191.89C163.98 191.89 163.6 191.88 163.21 191.88C162.82 191.88 162.44 191.89 162.05 191.89C150.2 192.08 139.06 195.18 129.31 200.5C107.28 212.52 92.34 235.89 92.34 262.75C92.34 275.03 95.46 286.57 100.95 296.64C112.51 317.82 134.56 332.46 160.11 333.56C107.78 331.96 65.66 289.84 64.06 237.5C64.04 237.1 64.03 236.69 64.02 236.28C64.01 235.66 64 235.03 64 234.4C64 233.77 64.01 233.14 64.02 232.52C65.02 194.25 96.36 163.54 134.86 163.54C144.94 163.54 154.53 165.64 163.21 169.44C177.66 175.75 189.6 186.74 197.11 200.5C202.43 210.25 205.53 221.39 205.72 233.24Z" fill="url(#paint3_linear)"/>
</g>
<g filter="url(#filter5_di)">
<path d="M226.99 295.78C226.49 296.08 225.98 296.36 225.47 296.64C215.4 302.14 203.85 305.27 191.56 305.27C181.48 305.27 171.89 303.17 163.21 299.37C138.52 288.58 121.16 264.12 120.7 235.56C121.32 258.51 140.12 276.92 163.21 276.92C186.3 276.92 205.1 258.51 205.72 235.56C205.72 235.17 205.73 234.79 205.73 234.4C205.73 235.03 205.74 235.66 205.75 236.28C206.16 258.36 213.77 278.67 226.36 294.96C226.56 295.24 226.77 295.51 226.99 295.78Z" fill="url(#paint4_linear)"/>
</g>
<g filter="url(#filter6_di)">
<path d="M347.45 233.24C346.83 210.3 328.04 191.88 304.94 191.88C281.85 191.88 263.05 210.3 262.43 233.24C262.43 233.63 262.42 234.01 262.42 234.4C262.42 233.77 262.41 233.14 262.4 232.52C261.99 210.45 254.37 190.14 241.8 173.86C241.59 173.58 241.38 173.3 241.16 173.03C241.67 172.73 242.18 172.44 242.7 172.16C252.77 166.66 264.32 163.54 276.6 163.54C286.68 163.54 296.26 165.64 304.94 169.44C329.63 180.22 346.99 204.68 347.45 233.24Z" fill="url(#paint5_linear)"/>
</g>
<g filter="url(#filter7_di)">
<path d="M375.81 206.06C375.81 232.91 360.87 256.28 338.84 268.3C329.09 273.62 317.95 276.72 306.1 276.91C328.67 276.3 346.84 258.13 347.45 235.56C347.45 235.17 347.46 234.79 347.46 234.4C347.46 234.01 347.45 233.63 347.45 233.24C346.99 204.68 329.63 180.22 304.94 169.44C296.26 165.64 286.68 163.54 276.6 163.54C264.32 163.54 252.77 166.66 242.7 172.16C242.18 172.44 241.67 172.73 241.16 173.03C238.95 170.22 236.58 167.53 234.08 164.98C251.4 147.28 275.31 136.05 301.84 135.25C302.25 135.23 302.65 135.22 303.06 135.21C303.68 135.2 304.31 135.19 304.94 135.19C305.57 135.19 306.2 135.2 306.82 135.21C307.23 135.22 307.64 135.23 308.04 135.25C333.59 136.35 355.63 150.99 367.19 172.16C372.69 182.23 375.81 193.78 375.81 206.06Z" fill="url(#paint6_linear)"/>
</g>
<g filter="url(#filter8_di)">
<path d="M404.16 234.4C404.16 235.03 404.15 235.66 404.14 236.28C403.14 274.55 371.8 305.27 333.29 305.27C323.21 305.27 313.62 303.17 304.94 299.37C290.49 293.06 278.55 282.06 271.04 268.3C265.72 258.55 262.62 247.41 262.43 235.56C263.04 258.13 281.22 276.3 303.78 276.91C304.17 276.91 304.55 276.92 304.94 276.92C305.33 276.92 305.71 276.91 306.1 276.91C317.95 276.72 329.09 273.62 338.84 268.3C360.87 256.28 375.81 232.91 375.81 206.06C375.81 193.78 372.69 182.23 367.19 172.16C355.63 150.99 333.59 136.35 308.04 135.25C360.38 136.85 402.5 178.97 404.1 231.3C404.12 231.7 404.13 232.11 404.14 232.52C404.15 233.14 404.16 233.77 404.16 234.4Z" fill="url(#paint7_linear)"/>
</g>
</g>
<defs>
<filter id="filter0_i" x="0" y="0" width="476" height="476" filterUnits="userSpaceOnUse" color-interpolation-filters="sRGB">
<feFlood flood-opacity="0" result="BackgroundImageFix"/>
<feBlend mode="normal" in="SourceGraphic" in2="BackgroundImageFix" result="shape"/>
<feColorMatrix in="SourceAlpha" type="matrix" values="0 0 0 0 0 0 0 0 0 0 0 0 0 0 0 0 0 0 127 0" result="hardAlpha"/>
<feOffset dx="10" dy="10"/>
<feGaussianBlur stdDeviation="4"/>
<feComposite in2="hardAlpha" operator="arithmetic" k2="-1" k3="1"/>
<feColorMatrix type="matrix" values="0 0 0 0 0.204167 0 0 0 0 0.19651 0 0 0 0 0.19651 0 0 0 0.35 0"/>
<feBlend mode="normal" in2="shape" result="effect1_innerShadow"/>
</filter>
<filter id="filter1_df" x="54" y="134.69" width="360.16" height="218.93" filterUnits="userSpaceOnUse" color-interpolation-filters="sRGB">
<feFlood flood-opacity="0" result="BackgroundImageFix"/>
<feColorMatrix in="SourceAlpha" type="matrix" values="0 0 0 0 0 0 0 0 0 0 0 0 0 0 0 0 0 0 127 0"/>
<feOffset dy="10"/>
<feGaussianBlur stdDeviation="5"/>
<feColorMatrix type="matrix" values="0 0 0 0 0 0 0 0 0 0 0 0 0 0 0 0 0 0 0.25 0"/>
<feBlend mode="normal" in2="BackgroundImageFix" result="effect1_dropShadow"/>
<feBlend mode="normal" in="SourceGraphic" in2="effect1_dropShadow" result="shape"/>
<feGaussianBlur stdDeviation="0.25" result="effect2_foregroundBlur"/>
</filter>
<filter id="filter2_di" x="82.3398" y="181.89" width="181.74" height="181.73" filterUnits="userSpaceOnUse" color-interpolation-filters="sRGB">
<feFlood flood-opacity="0" result="BackgroundImageFix"/>
<feColorMatrix in="SourceAlpha" type="matrix" values="0 0 0 0 0 0 0 0 0 0 0 0 0 0 0 0 0 0 127 0"/>
<feOffset dx="10" dy="10"/>
<feGaussianBlur stdDeviation="10"/>
<feColorMatrix type="matrix" values="0 0 0 0 0 0 0 0 0 0 0 0 0 0 0 0 0 0 0.25 0"/>
<feBlend mode="normal" in2="BackgroundImageFix" result="effect1_dropShadow"/>
<feBlend mode="normal" in="SourceGraphic" in2="effect1_dropShadow" result="shape"/>
<feColorMatrix in="SourceAlpha" type="matrix" values="0 0 0 0 0 0 0 0 0 0 0 0 0 0 0 0 0 0 127 0" result="hardAlpha"/>
<feOffset dx="1" dy="1"/>
<feGaussianBlur stdDeviation="0.5"/>
<feComposite in2="hardAlpha" operator="arithmetic" k2="-1" k3="1"/>
<feColorMatrix type="matrix" values="0 0 0 0 0 0 0 0 0 0 0 0 0 0 0 0 0 0 0.25 0"/>
<feBlend mode="normal" in2="shape" result="effect2_innerShadow"/>
</filter>
<filter id="filter3_di" x="54.02" y="125.19" width="380.12" height="238.43" filterUnits="userSpaceOnUse" color-interpolation-filters="sRGB">
<feFlood flood-opacity="0" result="BackgroundImageFix"/>
<feColorMatrix in="SourceAlpha" type="matrix" values="0 0 0 0 0 0 0 0 0 0 0 0 0 0 0 0 0 0 127 0"/>
<feOffset dx="10" dy="10"/>
<feGaussianBlur stdDeviation="10"/>
<feColorMatrix type="matrix" values="0 0 0 0 0 0 0 0 0 0 0 0 0 0 0 0 0 0 0.25 0"/>
<feBlend mode="normal" in2="BackgroundImageFix" result="effect1_dropShadow"/>
<feBlend mode="normal" in="SourceGraphic" in2="effect1_dropShadow" result="shape"/>
<feColorMatrix in="SourceAlpha" type="matrix" values="0 0 0 0 0 0 0 0 0 0 0 0 0 0 0 0 0 0 127 0" result="hardAlpha"/>
<feOffset dx="1" dy="1"/>
<feGaussianBlur stdDeviation="0.5"/>
<feComposite in2="hardAlpha" operator="arithmetic" k2="-1" k3="1"/>
<feColorMatrix type="matrix" values="0 0 0 0 0 0 0 0 0 0 0 0 0 0 0 0 0 0 0.25 0"/>
<feBlend mode="normal" in2="shape" result="effect2_innerShadow"/>
</filter>
<filter id="filter4_di" x="54" y="153.54" width="181.72" height="210.02" filterUnits="userSpaceOnUse" color-interpolation-filters="sRGB">
<feFlood flood-opacity="0" result="BackgroundImageFix"/>
<feColorMatrix in="SourceAlpha" type="matrix" values="0 0 0 0 0 0 0 0 0 0 0 0 0 0 0 0 0 0 127 0"/>
<feOffset dx="10" dy="10"/>
<feGaussianBlur stdDeviation="10"/>
<feColorMatrix type="matrix" values="0 0 0 0 0 0 0 0 0 0 0 0 0 0 0 0 0 0 0.25 0"/>
<feBlend mode="normal" in2="BackgroundImageFix" result="effect1_dropShadow"/>
<feBlend mode="normal" in="SourceGraphic" in2="effect1_dropShadow" result="shape"/>
<feColorMatrix in="SourceAlpha" type="matrix" values="0 0 0 0 0 0 0 0 0 0 0 0 0 0 0 0 0 0 127 0" result="hardAlpha"/>
<feOffset dx="1" dy="1"/>
<feGaussianBlur stdDeviation="0.5"/>
<feComposite in2="hardAlpha" operator="arithmetic" k2="-1" k3="1"/>
<feColorMatrix type="matrix" values="0 0 0 0 0 0 0 0 0 0 0 0 0 0 0 0 0 0 0.25 0"/>
<feBlend mode="normal" in2="shape" result="effect2_innerShadow"/>
</filter>
<filter id="filter5_di" x="110.7" y="224.4" width="146.29" height="110.87" filterUnits="userSpaceOnUse" color-interpolation-filters="sRGB">
<feFlood flood-opacity="0" result="BackgroundImageFix"/>
<feColorMatrix in="SourceAlpha" type="matrix" values="0 0 0 0 0 0 0 0 0 0 0 0 0 0 0 0 0 0 127 0"/>
<feOffset dx="10" dy="10"/>
<feGaussianBlur stdDeviation="10"/>
<feColorMatrix type="matrix" values="0 0 0 0 0 0 0 0 0 0 0 0 0 0 0 0 0 0 0.25 0"/>
<feBlend mode="normal" in2="BackgroundImageFix" result="effect1_dropShadow"/>
<feBlend mode="normal" in="SourceGraphic" in2="effect1_dropShadow" result="shape"/>
<feColorMatrix in="SourceAlpha" type="matrix" values="0 0 0 0 0 0 0 0 0 0 0 0 0 0 0 0 0 0 127 0" result="hardAlpha"/>
<feOffset dx="1" dy="1"/>
<feGaussianBlur stdDeviation="0.5"/>
<feComposite in2="hardAlpha" operator="arithmetic" k2="-1" k3="1"/>
<feColorMatrix type="matrix" values="0 0 0 0 0 0 0 0 0 0 0 0 0 0 0 0 0 0 0.25 0"/>
<feBlend mode="normal" in2="shape" result="effect2_innerShadow"/>
</filter>
<filter id="filter6_di" x="231.16" y="153.54" width="146.29" height="110.86" filterUnits="userSpaceOnUse" color-interpolation-filters="sRGB">
<feFlood flood-opacity="0" result="BackgroundImageFix"/>
<feColorMatrix in="SourceAlpha" type="matrix" values="0 0 0 0 0 0 0 0 0 0 0 0 0 0 0 0 0 0 127 0"/>
<feOffset dx="10" dy="10"/>
<feGaussianBlur stdDeviation="10"/>
<feColorMatrix type="matrix" values="0 0 0 0 0 0 0 0 0 0 0 0 0 0 0 0 0 0 0.25 0"/>
<feBlend mode="normal" in2="BackgroundImageFix" result="effect1_dropShadow"/>
<feBlend mode="normal" in="SourceGraphic" in2="effect1_dropShadow" result="shape"/>
<feColorMatrix in="SourceAlpha" type="matrix" values="0 0 0 0 0 0 0 0 0 0 0 0 0 0 0 0 0 0 127 0" result="hardAlpha"/>
<feOffset dx="1" dy="1"/>
<feGaussianBlur stdDeviation="0.5"/>
<feComposite in2="hardAlpha" operator="arithmetic" k2="-1" k3="1"/>
<feColorMatrix type="matrix" values="0 0 0 0 0 0 0 0 0 0 0 0 0 0 0 0 0 0 0.25 0"/>
<feBlend mode="normal" in2="shape" result="effect2_innerShadow"/>
</filter>
<filter id="filter7_di" x="224.08" y="125.19" width="181.73" height="181.72" filterUnits="userSpaceOnUse" color-interpolation-filters="sRGB">
<feFlood flood-opacity="0" result="BackgroundImageFix"/>
<feColorMatrix in="SourceAlpha" type="matrix" values="0 0 0 0 0 0 0 0 0 0 0 0 0 0 0 0 0 0 127 0"/>
<feOffset dx="10" dy="10"/>
<feGaussianBlur stdDeviation="10"/>
<feColorMatrix type="matrix" values="0 0 0 0 0 0 0 0 0 0 0 0 0 0 0 0 0 0 0.25 0"/>
<feBlend mode="normal" in2="BackgroundImageFix" result="effect1_dropShadow"/>
<feBlend mode="normal" in="SourceGraphic" in2="effect1_dropShadow" result="shape"/>
<feColorMatrix in="SourceAlpha" type="matrix" values="0 0 0 0 0 0 0 0 0 0 0 0 0 0 0 0 0 0 127 0" result="hardAlpha"/>
<feOffset dx="1" dy="1"/>
<feGaussianBlur stdDeviation="0.5"/>
<feComposite in2="hardAlpha" operator="arithmetic" k2="-1" k3="1"/>
<feColorMatrix type="matrix" values="0 0 0 0 0 0 0 0 0 0 0 0 0 0 0 0 0 0 0.25 0"/>
<feBlend mode="normal" in2="shape" result="effect2_innerShadow"/>
</filter>
<filter id="filter8_di" x="252.43" y="125.25" width="181.73" height="210.02" filterUnits="userSpaceOnUse" color-interpolation-filters="sRGB">
<feFlood flood-opacity="0" result="BackgroundImageFix"/>
<feColorMatrix in="SourceAlpha" type="matrix" values="0 0 0 0 0 0 0 0 0 0 0 0 0 0 0 0 0 0 127 0"/>
<feOffset dx="10" dy="10"/>
<feGaussianBlur stdDeviation="10"/>
<feColorMatrix type="matrix" values="0 0 0 0 0 0 0 0 0 0 0 0 0 0 0 0 0 0 0.25 0"/>
<feBlend mode="normal" in2="BackgroundImageFix" result="effect1_dropShadow"/>
<feBlend mode="normal" in="SourceGraphic" in2="effect1_dropShadow" result="shape"/>
<feColorMatrix in="SourceAlpha" type="matrix" values="0 0 0 0 0 0 0 0 0 0 0 0 0 0 0 0 0 0 127 0" result="hardAlpha"/>
<feOffset dx="1" dy="1"/>
<feGaussianBlur stdDeviation="0.5"/>
<feComposite in2="hardAlpha" operator="arithmetic" k2="-1" k3="1"/>
<feColorMatrix type="matrix" values="0 0 0 0 0 0 0 0 0 0 0 0 0 0 0 0 0 0 0.25 0"/>
<feBlend mode="normal" in2="shape" result="effect2_innerShadow"/>
</filter>
<linearGradient id="paint0_linear" x1="234" y1="0" x2="234" y2="468" gradientUnits="userSpaceOnUse">
<stop stop-color="#033295"/>
<stop offset="1" stop-color="#056EDE"/>
</linearGradient>
<linearGradient id="paint1_linear" x1="92.3398" y1="262.755" x2="234.08" y2="262.755" gradientUnits="userSpaceOnUse">
<stop stop-color="#021B79"/>
<stop offset="1" stop-color="#0575E6"/>
</linearGradient>
<linearGradient id="paint2_linear" x1="64.02" y1="234.405" x2="404.14" y2="234.405" gradientUnits="userSpaceOnUse">
<stop stop-color="#021B79"/>
<stop offset="1" stop-color="#0575E6"/>
</linearGradient>
<linearGradient id="paint3_linear" x1="64" y1="248.55" x2="205.72" y2="248.55" gradientUnits="userSpaceOnUse">
<stop stop-color="#0575E6"/>
<stop offset="1" stop-color="#021B79"/>
</linearGradient>
<linearGradient id="paint4_linear" x1="120.7" y1="269.835" x2="226.99" y2="269.835" gradientUnits="userSpaceOnUse">
<stop stop-color="#0575E6"/>
<stop offset="1" stop-color="#021B79"/>
</linearGradient>
<linearGradient id="paint5_linear" x1="241.16" y1="198.97" x2="347.45" y2="198.97" gradientUnits="userSpaceOnUse">
<stop stop-color="#021B79"/>
<stop offset="1" stop-color="#0575E6"/>
</linearGradient>
<linearGradient id="paint6_linear" x1="234.08" y1="206.05" x2="375.81" y2="206.05" gradientUnits="userSpaceOnUse">
<stop stop-color="#0575E6"/>
<stop offset="1" stop-color="#021B79"/>
</linearGradient>
<linearGradient id="paint7_linear" x1="262.43" y1="220.26" x2="404.16" y2="220.26" gradientUnits="userSpaceOnUse">
<stop stop-color="#021B79"/>
<stop offset="1" stop-color="#0575E6"/>
</linearGradient>
</defs>
</svg>
